# xmcd CD database file
#
# Track frame offsets:
#	150
#	16859
#	34335
#	50158
#	64681
#	83185
#	101703
#
# Disc length: 1730 seconds
#
# Revision: 0
# Processed by: cddbd v1.5.1PL0 Copyright (c) Steve Scherf et al.
# Submitted via: CDex 1.51
#
DISCID=5806c007
DTITLE=sugarmonkey - sugarmonkey
DYEAR=20003
DGENRE=New Age
TTITLE0=better than nothing
TTITLE1=fading my friend
TTITLE2=save me
TTITLE3=hey girl
TTITLE4=vertigo
TTITLE5=don't let me sleep
TTITLE6=bracing
EXTD=YEAR: 20003
EXTT0=
EXTT1=
EXTT2=
EXTT3=
EXTT4=
EXTT5=
EXTT6=
PLAYORDER=
